<?xml version="1.0" encoding="utf-8"?>
<!-- Generator: Adobe Illustrator 19.0.0, SVG Export Plug-In . SVG Version: 6.00 Build 0)  -->
<svg version="1.1" id="visual" xmlns="http://www.w3.org/2000/svg" xmlns:xlink="http://www.w3.org/1999/xlink" x="0px" y="0px"
	 viewBox="480 -260 1920 188.2" style="enable-background:new 480 -260 1920 188.2;" xml:space="preserve">
<style type="text/css">
	.st0{fill:#6B86BD;}
</style>
<path class="st0" d="M480-122l45.7,7.7c45.6,7.6,137,23,228.5,25.6c91.5,2.7,183.1-7.3,274.6-14.1c91.5-6.9,182.9-10.5,274.2-4
	s182.7,23.1,274,30.5c91.3,7.3,182.7,5.3,274.2-2.7s183.1-22,274.6-29.3c91.5-7.4,182.9-8,228.5-8.4l45.7-0.3v-143h-45.7
	c-45.6,0-137,0-228.5,0s-183.1,0-274.6,0s-182.9,0-274.2,0s-182.7,0-274,0s-182.7,0-274.2,0s-183.1,0-274.6,0s-182.9,0-228.5,0H480
	V-122z"/>
</svg>
