<svg xmlns="http://www.w3.org/2000/svg"  viewBox="0 0 128 128" width="256px" height="256px"><path fill="#fff" d="M64 4A15 15 0 1 0 64 34 15 15 0 1 0 64 4zM29 14A10 10 0 1 0 29 34 10 10 0 1 0 29 14zM99 14A10 10 0 1 0 99 34 10 10 0 1 0 99 14z"/><path fill="#6ec6af" d="M104,121H24c-5.5,0-10-4.5-10-10V67c0-5.5,4.5-10,10-10h80c5.5,0,10,4.5,10,10v44 C114,116.5,109.5,121,104,121"/><path fill="#c5e8df" d="M94,67H34c0,5.5-4.5,10-10,10v24c5.5,0,10,4.5,10,10h60c0-5.5,4.5-10,10-10V77C98.5,77,94,72.5,94,67"/><path fill="#444b54" d="M104,124H24c-7.2,0-13-5.8-13-13V67c0-7.2,5.8-13,13-13h80c7.2,0,13,5.8,13,13v44 C117,118.2,111.2,124,104,124z M24,60c-3.9,0-7,3.1-7,7v44c0,3.9,3.1,7,7,7h80c3.9,0,7-3.1,7-7V67c0-3.9-3.1-7-7-7H24z"/><path fill="#fff" d="M67.8,86.9l-6.2-1.5c-1.9-0.5-3.1-2.1-3.1-4c0-2.3,1.9-4.2,4.2-4.2h3c2.1,0,3.8,1.7,3.8,3.8 c0,1.7,1.3,3,3,3s3-1.3,3-3c0-5-3.7-9.1-8.5-9.7V70c0-1.7-1.3-3-3-3s-3,1.3-3,3v1.4c-4.8,0.8-8.5,5-8.5,10c0,4.7,3.2,8.7,7.7,9.9 l6.2,1.5c1.9,0.5,3.1,2.1,3.1,4c0,2.3-1.9,4.2-4.2,4.2h-3c-2.1,0-3.8-1.7-3.8-3.8c0-1.7-1.3-3-3-3s-3,1.3-3,3c0,5,3.7,9.1,8.5,9.7 v1.3c0,1.7,1.3,3,3,3s3-1.3,3-3v-1.4c4.8-0.8,8.5-5,8.5-10C75.5,92,72.3,88,67.8,86.9z"/><path fill="#444b54" d="M64 37c-9.9 0-18-8.1-18-18S54.1 1 64 1s18 8.1 18 18S73.9 37 64 37zM64 7c-6.6 0-12 5.4-12 12s5.4 12 12 12 12-5.4 12-12S70.6 7 64 7zM74.6 49.5c-.8 0-1.5-.3-2.1-.9-2.3-2.3-5.3-3.5-8.5-3.5s-6.2 1.2-8.5 3.5c-1.2 1.2-3.1 1.2-4.2 0-1.2-1.2-1.2-3.1 0-4.2 3.4-3.4 7.9-5.3 12.7-5.3s9.3 1.9 12.7 5.3c1.2 1.2 1.2 3.1 0 4.2C76.1 49.2 75.4 49.5 74.6 49.5zM29 37c-7.2 0-13-5.8-13-13s5.8-13 13-13 13 5.8 13 13S36.2 37 29 37zM29 17c-3.9 0-7 3.1-7 7s3.1 7 7 7 7-3.1 7-7S32.9 17 29 17zM39.6 49.5c-.8 0-1.5-.3-2.1-.9-2.3-2.3-5.3-3.5-8.5-3.5s-6.2 1.2-8.5 3.5c-1.2 1.2-3.1 1.2-4.2 0-1.2-1.2-1.2-3.1 0-4.2 3.4-3.4 7.9-5.3 12.7-5.3s9.3 1.9 12.7 5.3c1.2 1.2 1.2 3.1 0 4.2C41.1 49.2 40.4 49.5 39.6 49.5zM99 37c-7.2 0-13-5.8-13-13s5.8-13 13-13 13 5.8 13 13S106.2 37 99 37zM99 17c-3.9 0-7 3.1-7 7s3.1 7 7 7 7-3.1 7-7S102.9 17 99 17zM109.6 49.5c-.8 0-1.5-.3-2.1-.9-2.3-2.3-5.3-3.5-8.5-3.5s-6.2 1.2-8.5 3.5c-1.2 1.2-3.1 1.2-4.2 0-1.2-1.2-1.2-3.1 0-4.2 3.4-3.4 7.9-5.3 12.7-5.3s9.3 1.9 12.7 5.3c1.2 1.2 1.2 3.1 0 4.2C111.1 49.2 110.4 49.5 109.6 49.5z"/></svg>