<?xml version="1.0" encoding="UTF-8"?>
<svg xmlns="http://www.w3.org/2000/svg" xmlns:xlink="http://www.w3.org/1999/xlink" viewBox="0 0 256 256" width="256px" height="256px">
<g id="surface281314975">
<path style=" stroke:none;fill-rule:nonzero;fill:rgb(100%,100%,100%);fill-opacity:1;" d="M 218 188 C 201.429688 188 188 201.429688 188 218 C 188 234.570312 201.429688 248 218 248 C 234.570312 248 248 234.570312 248 218 C 248 201.429688 234.570312 188 218 188 Z M 156 248 L 28 248 C 17 248 8 239 8 228 L 8 28 C 8 17 17 8 28 8 L 136 8 C 158 8 176 26 176 48 L 176 228 C 176 239 167 248 156 248 Z M 156 248 "/>
<path style=" stroke:none;fill-rule:nonzero;fill:rgb(43.137255%,77.64706%,68.627453%);fill-opacity:1;" d="M 114.199219 147.800781 C 114.199219 140.398438 110.601562 133.601562 104.601562 129.398438 L 86 116.601562 C 83.398438 114.601562 81.800781 111.601562 81.800781 108.199219 C 81.800781 102.601562 86.398438 98 92 98 C 96.199219 98 99.800781 100.398438 101.398438 104.199219 C 102.601562 107.199219 106.199219 108.601562 109.199219 107.398438 C 112.199219 106.199219 113.601562 102.601562 112.398438 99.601562 C 109.800781 93.199219 104.398438 88.601562 98 86.800781 L 98 86 C 98 82.601562 95.398438 80 92 80 C 88.601562 80 86 82.601562 86 86 L 86 86.800781 C 76.601562 89.398438 69.800781 98 69.800781 108.199219 C 69.800781 115.398438 73.199219 122 79.199219 126.199219 L 97.800781 139.199219 C 100.601562 141.199219 102.398438 144.199219 102.398438 147.601562 C 102.398438 153.199219 97.800781 157.800781 92.199219 157.800781 C 88.199219 157.800781 84.398438 155.398438 82.800781 151.601562 C 81.398438 148.601562 78 147.199219 75 148.398438 C 72 149.800781 70.601562 153.199219 71.800781 156.199219 C 74.601562 162.398438 79.800781 167 86.199219 168.800781 L 86.199219 170 C 86.199219 173.398438 88.800781 176 92.199219 176 C 95.601562 176 98.199219 173.398438 98.199219 170 L 98.199219 169.199219 C 107.398438 166.601562 114.199219 158 114.199219 147.800781 Z M 114.199219 147.800781 "/>
<path style=" stroke:none;fill-rule:nonzero;fill:rgb(26.666668%,29.411766%,32.941177%);fill-opacity:1;" d="M 116 254 L 28 254 C 13.601562 254 2 242.398438 2 228 L 2 28 C 2 13.601562 13.601562 2 28 2 L 136 2 C 148.398438 2 159.800781 6.800781 168.601562 15.601562 C 177.199219 24.199219 182 35.800781 182 48 C 182 51.398438 179.398438 54 176 54 C 172.601562 54 170 51.398438 170 48 C 170 39 166.398438 30.398438 160 24 C 153.601562 17.601562 145 14 136 14 L 28 14 C 20.199219 14 14 20.199219 14 28 L 14 228 C 14 235.800781 20.199219 242 28 242 L 116 242 C 119.398438 242 122 244.601562 122 248 C 122 251.398438 119.398438 254 116 254 Z M 116 254 "/>
<path style=" stroke:none;fill-rule:nonzero;fill:rgb(26.666668%,29.411766%,32.941177%);fill-opacity:1;" d="M 176 148 C 172.601562 148 170 145.398438 170 142 L 170 74 C 170 70.601562 172.601562 68 176 68 C 179.398438 68 182 70.601562 182 74 L 182 142 C 182 145.398438 179.199219 148 176 148 Z M 176 54 L 156 54 C 141.601562 54 130 42.398438 130 28 L 130 8 C 130 4.601562 132.601562 2 136 2 C 139.398438 2 142 4.601562 142 8 L 142 28 C 142 35.800781 148.199219 42 156 42 L 176 42 C 179.398438 42 182 44.601562 182 48 C 182 51.398438 179.398438 54 176 54 Z M 176 54 "/>
<path style=" stroke:none;fill-rule:nonzero;fill:rgb(100%,100%,100%);fill-opacity:1;" d="M 176 168 C 153.910156 168 136 185.910156 136 208 C 136 230.089844 153.910156 248 176 248 C 198.089844 248 216 230.089844 216 208 C 216 185.910156 198.089844 168 176 168 Z M 176 168 "/>
<path style=" stroke:none;fill-rule:nonzero;fill:rgb(43.137255%,77.64706%,68.627453%);fill-opacity:1;" d="M 239.398438 189.199219 C 236.800781 187.199219 233 187.800781 231 190.398438 C 229 193 229.601562 196.800781 232.199219 198.800781 C 238.398438 203.398438 241.800781 210.398438 241.800781 218 C 241.800781 231.199219 231 242 217.800781 242 C 214.601562 242 211.398438 241.398438 208.601562 240.199219 C 216.800781 231.800781 221.800781 220.601562 221.800781 208 C 221.800781 182.601562 201.199219 162 175.800781 162 C 150.398438 162 129.800781 182.601562 129.800781 208 C 129.800781 233.398438 150.398438 254 175.800781 254 C 184 254 191.601562 251.800781 198.199219 248.199219 C 203.800781 251.800781 210.601562 254 217.800781 254 C 237.601562 254 253.800781 237.800781 253.800781 218 C 254 206.601562 248.601562 195.800781 239.398438 189.199219 Z M 142 208 C 142 189.199219 157.199219 174 176 174 C 194.800781 174 210 189.199219 210 208 C 210 226.800781 194.800781 242 176 242 C 157.199219 242 142 226.800781 142 208 Z M 142 208 "/>
</g>
</svg>
