<svg width="807" height="630" viewBox="0 0 807 630" fill="none" xmlns="http://www.w3.org/2000/svg">
<circle cx="403" cy="123" r="121.5" fill="#6B86BD" stroke="black" stroke-width="3"/>
<circle cx="403" cy="507" r="121.5" fill="#95B8FF" stroke="black" stroke-width="3"/>
<circle cx="123" cy="507" r="121.5" fill="#95B8FF" stroke="black" stroke-width="3"/>
<circle cx="684" cy="507" r="121.5" fill="#95B8FF" stroke="black" stroke-width="3"/>
<path d="M355.438 128.969V145H346.062V99.5H363.812C367.229 99.5 370.229 100.125 372.812 101.375C375.417 102.625 377.417 104.406 378.812 106.719C380.208 109.01 380.906 111.625 380.906 114.562C380.906 119.021 379.375 122.542 376.312 125.125C373.271 127.688 369.052 128.969 363.656 128.969H355.438ZM355.438 121.375H363.812C366.292 121.375 368.177 120.792 369.469 119.625C370.781 118.458 371.438 116.792 371.438 114.625C371.438 112.396 370.781 110.594 369.469 109.219C368.156 107.844 366.344 107.135 364.031 107.094H355.438V121.375ZM414.75 125.281H396.75V137.469H417.875V145H387.375V99.5H417.812V107.094H396.75V117.938H414.75V125.281ZM460.75 123.281C460.75 127.76 459.958 131.688 458.375 135.062C456.792 138.438 454.521 141.042 451.562 142.875C448.625 144.708 445.25 145.625 441.438 145.625C437.667 145.625 434.302 144.719 431.344 142.906C428.385 141.094 426.094 138.51 424.469 135.156C422.844 131.781 422.021 127.906 422 123.531V121.281C422 116.802 422.802 112.865 424.406 109.469C426.031 106.052 428.312 103.438 431.25 101.625C434.208 99.7917 437.583 98.875 441.375 98.875C445.167 98.875 448.531 99.7917 451.469 101.625C454.427 103.438 456.708 106.052 458.312 109.469C459.938 112.865 460.75 116.792 460.75 121.25V123.281ZM451.25 121.219C451.25 116.448 450.396 112.823 448.688 110.344C446.979 107.865 444.542 106.625 441.375 106.625C438.229 106.625 435.802 107.854 434.094 110.312C432.385 112.75 431.521 116.333 431.5 121.062V123.281C431.5 127.927 432.354 131.531 434.062 134.094C435.771 136.656 438.229 137.938 441.438 137.938C444.583 137.938 447 136.708 448.688 134.25C450.375 131.771 451.229 128.167 451.25 123.438V121.219Z" fill="white"/>
<path d="M405.561 244.939C404.975 244.354 404.025 244.354 403.439 244.939L393.893 254.485C393.308 255.071 393.308 256.021 393.893 256.607C394.479 257.192 395.429 257.192 396.015 256.607L404.5 248.121L412.985 256.607C413.571 257.192 414.521 257.192 415.107 256.607C415.692 256.021 415.692 255.071 415.107 254.485L405.561 244.939ZM403 246L403 384L406 384L406 246L403 246Z" fill="black"/>
<path d="M310.561 201.061C310.561 200.232 309.889 199.561 309.061 199.561L295.561 199.561C294.732 199.561 294.061 200.232 294.061 201.061C294.061 201.889 294.732 202.561 295.561 202.561L307.561 202.561L307.561 214.561C307.561 215.389 308.232 216.061 309.061 216.061C309.889 216.061 310.561 215.389 310.561 214.561L310.561 201.061ZM308 200L123 385L125.121 387.121L310.121 202.121L308 200Z" fill="black"/>
<path d="M495.439 201.061C495.439 200.232 496.111 199.561 496.939 199.561L510.439 199.561C511.268 199.561 511.939 200.232 511.939 201.061C511.939 201.889 511.268 202.561 510.439 202.561L498.439 202.561L498.439 214.561C498.439 215.389 497.768 216.061 496.939 216.061C496.111 216.061 495.439 215.389 495.439 214.561L495.439 201.061ZM498 200L683 385L680.879 387.121L495.879 202.121L498 200Z" fill="black"/>
<path d="M90.668 429.988V436H87.1523V418.938H93.8086C95.0898 418.938 96.2148 419.172 97.1836 419.641C98.1602 420.109 98.9102 420.777 99.4336 421.645C99.957 422.504 100.219 423.484 100.219 424.586C100.219 426.258 99.6445 427.578 98.4961 428.547C97.3555 429.508 95.7734 429.988 93.75 429.988H90.668ZM90.668 427.141H93.8086C94.7383 427.141 95.4453 426.922 95.9297 426.484C96.4219 426.047 96.668 425.422 96.668 424.609C96.668 423.773 96.4219 423.098 95.9297 422.582C95.4375 422.066 94.7578 421.801 93.8906 421.785H90.668V427.141ZM109.629 436C109.473 435.695 109.359 435.316 109.289 434.863C108.469 435.777 107.402 436.234 106.09 436.234C104.848 436.234 103.816 435.875 102.996 435.156C102.184 434.438 101.777 433.531 101.777 432.438C101.777 431.094 102.273 430.062 103.266 429.344C104.266 428.625 105.707 428.262 107.59 428.254H109.148V427.527C109.148 426.941 108.996 426.473 108.691 426.121C108.395 425.77 107.922 425.594 107.273 425.594C106.703 425.594 106.254 425.73 105.926 426.004C105.605 426.277 105.445 426.652 105.445 427.129H102.059C102.059 426.395 102.285 425.715 102.738 425.09C103.191 424.465 103.832 423.977 104.66 423.625C105.488 423.266 106.418 423.086 107.449 423.086C109.012 423.086 110.25 423.48 111.164 424.27C112.086 425.051 112.547 426.152 112.547 427.574V433.07C112.555 434.273 112.723 435.184 113.051 435.801V436H109.629ZM106.828 433.645C107.328 433.645 107.789 433.535 108.211 433.316C108.633 433.09 108.945 432.789 109.148 432.414V430.234H107.883C106.188 430.234 105.285 430.82 105.176 431.992L105.164 432.191C105.164 432.613 105.312 432.961 105.609 433.234C105.906 433.508 106.312 433.645 106.828 433.645ZM119.695 431.207L122.039 423.32H125.672L120.574 437.969L120.293 438.637C119.535 440.293 118.285 441.121 116.543 441.121C116.051 441.121 115.551 441.047 115.043 440.898V438.332L115.559 438.344C116.199 438.344 116.676 438.246 116.988 438.051C117.309 437.855 117.559 437.531 117.738 437.078L118.137 436.035L113.695 423.32H117.34L119.695 431.207ZM134.133 426.496C133.672 426.434 133.266 426.402 132.914 426.402C131.633 426.402 130.793 426.836 130.395 427.703V436H127.008V423.32H130.207L130.301 424.832C130.98 423.668 131.922 423.086 133.125 423.086C133.5 423.086 133.852 423.137 134.18 423.238L134.133 426.496ZM134.824 429.543C134.824 428.285 135.066 427.164 135.551 426.18C136.035 425.195 136.73 424.434 137.637 423.895C138.551 423.355 139.609 423.086 140.812 423.086C142.523 423.086 143.918 423.609 144.996 424.656C146.082 425.703 146.688 427.125 146.812 428.922L146.836 429.789C146.836 431.734 146.293 433.297 145.207 434.477C144.121 435.648 142.664 436.234 140.836 436.234C139.008 436.234 137.547 435.648 136.453 434.477C135.367 433.305 134.824 431.711 134.824 429.695V429.543ZM138.211 429.789C138.211 430.992 138.438 431.914 138.891 432.555C139.344 433.188 139.992 433.504 140.836 433.504C141.656 433.504 142.297 433.191 142.758 432.566C143.219 431.934 143.449 430.926 143.449 429.543C143.449 428.363 143.219 427.449 142.758 426.801C142.297 426.152 141.648 425.828 140.812 425.828C139.984 425.828 139.344 426.152 138.891 426.801C138.438 427.441 138.211 428.438 138.211 429.789ZM152.496 436H149.098V418H152.496V436ZM158.871 436H155.473V418H158.871V436ZM76.125 457.777C76.125 459.73 75.6797 461.297 74.7891 462.477C73.9062 463.648 72.7109 464.234 71.2031 464.234C69.9219 464.234 68.8867 463.789 68.0977 462.898V468.875H64.7109V451.32H67.8516L67.9688 452.562C68.7891 451.578 69.8594 451.086 71.1797 451.086C72.7422 451.086 73.957 451.664 74.8242 452.82C75.6914 453.977 76.125 455.57 76.125 457.602V457.777ZM72.7383 457.531C72.7383 456.352 72.5273 455.441 72.1055 454.801C71.6914 454.16 71.0859 453.84 70.2891 453.84C69.2266 453.84 68.4961 454.246 68.0977 455.059V460.25C68.5117 461.086 69.25 461.504 70.3125 461.504C71.9297 461.504 72.7383 460.18 72.7383 457.531ZM85.3594 454.496C84.8984 454.434 84.4922 454.402 84.1406 454.402C82.8594 454.402 82.0195 454.836 81.6211 455.703V464H78.2344V451.32H81.4336L81.5273 452.832C82.207 451.668 83.1484 451.086 84.3516 451.086C84.7266 451.086 85.0781 451.137 85.4062 451.238L85.3594 454.496ZM86.0508 457.543C86.0508 456.285 86.293 455.164 86.7773 454.18C87.2617 453.195 87.957 452.434 88.8633 451.895C89.7773 451.355 90.8359 451.086 92.0391 451.086C93.75 451.086 95.1445 451.609 96.2227 452.656C97.3086 453.703 97.9141 455.125 98.0391 456.922L98.0625 457.789C98.0625 459.734 97.5195 461.297 96.4336 462.477C95.3477 463.648 93.8906 464.234 92.0625 464.234C90.2344 464.234 88.7734 463.648 87.6797 462.477C86.5938 461.305 86.0508 459.711 86.0508 457.695V457.543ZM89.4375 457.789C89.4375 458.992 89.6641 459.914 90.1172 460.555C90.5703 461.188 91.2188 461.504 92.0625 461.504C92.8828 461.504 93.5234 461.191 93.9844 460.566C94.4453 459.934 94.6758 458.926 94.6758 457.543C94.6758 456.363 94.4453 455.449 93.9844 454.801C93.5234 454.152 92.875 453.828 92.0391 453.828C91.2109 453.828 90.5703 454.152 90.1172 454.801C89.6641 455.441 89.4375 456.438 89.4375 457.789ZM105.422 461.504C106.047 461.504 106.555 461.332 106.945 460.988C107.336 460.645 107.539 460.188 107.555 459.617H110.73C110.723 460.477 110.488 461.266 110.027 461.984C109.566 462.695 108.934 463.25 108.129 463.648C107.332 464.039 106.449 464.234 105.48 464.234C103.668 464.234 102.238 463.66 101.191 462.512C100.145 461.355 99.6211 459.762 99.6211 457.73V457.508C99.6211 455.555 100.141 453.996 101.18 452.832C102.219 451.668 103.645 451.086 105.457 451.086C107.043 451.086 108.312 451.539 109.266 452.445C110.227 453.344 110.715 454.543 110.73 456.043H107.555C107.539 455.387 107.336 454.855 106.945 454.449C106.555 454.035 106.039 453.828 105.398 453.828C104.609 453.828 104.012 454.117 103.605 454.695C103.207 455.266 103.008 456.195 103.008 457.484V457.836C103.008 459.141 103.207 460.078 103.605 460.648C104.004 461.219 104.609 461.504 105.422 461.504ZM118.5 464.234C116.641 464.234 115.125 463.664 113.953 462.523C112.789 461.383 112.207 459.863 112.207 457.965V457.637C112.207 456.363 112.453 455.227 112.945 454.227C113.438 453.219 114.133 452.445 115.031 451.906C115.938 451.359 116.969 451.086 118.125 451.086C119.859 451.086 121.223 451.633 122.215 452.727C123.215 453.82 123.715 455.371 123.715 457.379V458.762H115.641C115.75 459.59 116.078 460.254 116.625 460.754C117.18 461.254 117.879 461.504 118.723 461.504C120.027 461.504 121.047 461.031 121.781 460.086L123.445 461.949C122.938 462.668 122.25 463.23 121.383 463.637C120.516 464.035 119.555 464.234 118.5 464.234ZM118.113 453.828C117.441 453.828 116.895 454.055 116.473 454.508C116.059 454.961 115.793 455.609 115.676 456.453H120.387V456.184C120.371 455.434 120.168 454.855 119.777 454.449C119.387 454.035 118.832 453.828 118.113 453.828ZM132.516 460.496C132.516 460.082 132.309 459.758 131.895 459.523C131.488 459.281 130.832 459.066 129.926 458.879C126.91 458.246 125.402 456.965 125.402 455.035C125.402 453.91 125.867 452.973 126.797 452.223C127.734 451.465 128.957 451.086 130.465 451.086C132.074 451.086 133.359 451.465 134.32 452.223C135.289 452.98 135.773 453.965 135.773 455.176H132.387C132.387 454.691 132.23 454.293 131.918 453.98C131.605 453.66 131.117 453.5 130.453 453.5C129.883 453.5 129.441 453.629 129.129 453.887C128.816 454.145 128.66 454.473 128.66 454.871C128.66 455.246 128.836 455.551 129.188 455.785C129.547 456.012 130.148 456.211 130.992 456.383C131.836 456.547 132.547 456.734 133.125 456.945C134.914 457.602 135.809 458.738 135.809 460.355C135.809 461.512 135.312 462.449 134.32 463.168C133.328 463.879 132.047 464.234 130.477 464.234C129.414 464.234 128.469 464.047 127.641 463.672C126.82 463.289 126.176 462.77 125.707 462.113C125.238 461.449 125.004 460.734 125.004 459.969H128.215C128.246 460.57 128.469 461.031 128.883 461.352C129.297 461.672 129.852 461.832 130.547 461.832C131.195 461.832 131.684 461.711 132.012 461.469C132.348 461.219 132.516 460.895 132.516 460.496ZM144.867 460.496C144.867 460.082 144.66 459.758 144.246 459.523C143.84 459.281 143.184 459.066 142.277 458.879C139.262 458.246 137.754 456.965 137.754 455.035C137.754 453.91 138.219 452.973 139.148 452.223C140.086 451.465 141.309 451.086 142.816 451.086C144.426 451.086 145.711 451.465 146.672 452.223C147.641 452.98 148.125 453.965 148.125 455.176H144.738C144.738 454.691 144.582 454.293 144.27 453.98C143.957 453.66 143.469 453.5 142.805 453.5C142.234 453.5 141.793 453.629 141.48 453.887C141.168 454.145 141.012 454.473 141.012 454.871C141.012 455.246 141.188 455.551 141.539 455.785C141.898 456.012 142.5 456.211 143.344 456.383C144.188 456.547 144.898 456.734 145.477 456.945C147.266 457.602 148.16 458.738 148.16 460.355C148.16 461.512 147.664 462.449 146.672 463.168C145.68 463.879 144.398 464.234 142.828 464.234C141.766 464.234 140.82 464.047 139.992 463.672C139.172 463.289 138.527 462.77 138.059 462.113C137.59 461.449 137.355 460.734 137.355 459.969H140.566C140.598 460.57 140.82 461.031 141.234 461.352C141.648 461.672 142.203 461.832 142.898 461.832C143.547 461.832 144.035 461.711 144.363 461.469C144.699 461.219 144.867 460.895 144.867 460.496ZM153.926 464H150.527V451.32H153.926V464ZM150.328 448.039C150.328 447.531 150.496 447.113 150.832 446.785C151.176 446.457 151.641 446.293 152.227 446.293C152.805 446.293 153.266 446.457 153.609 446.785C153.953 447.113 154.125 447.531 154.125 448.039C154.125 448.555 153.949 448.977 153.598 449.305C153.254 449.633 152.797 449.797 152.227 449.797C151.656 449.797 151.195 449.633 150.844 449.305C150.5 448.977 150.328 448.555 150.328 448.039ZM159.844 451.32L159.949 452.785C160.855 451.652 162.07 451.086 163.594 451.086C164.938 451.086 165.938 451.48 166.594 452.27C167.25 453.059 167.586 454.238 167.602 455.809V464H164.215V455.891C164.215 455.172 164.059 454.652 163.746 454.332C163.434 454.004 162.914 453.84 162.188 453.84C161.234 453.84 160.52 454.246 160.043 455.059V464H156.656V451.32H159.844ZM169.688 457.566C169.688 455.621 170.148 454.055 171.07 452.867C172 451.68 173.25 451.086 174.82 451.086C176.211 451.086 177.293 451.562 178.066 452.516L178.207 451.32H181.277V463.578C181.277 464.688 181.023 465.652 180.516 466.473C180.016 467.293 179.309 467.918 178.395 468.348C177.48 468.777 176.41 468.992 175.184 468.992C174.254 468.992 173.348 468.805 172.465 468.43C171.582 468.062 170.914 467.586 170.461 467L171.961 464.938C172.805 465.883 173.828 466.355 175.031 466.355C175.93 466.355 176.629 466.113 177.129 465.629C177.629 465.152 177.879 464.473 177.879 463.59V462.91C177.098 463.793 176.07 464.234 174.797 464.234C173.273 464.234 172.039 463.641 171.094 462.453C170.156 461.258 169.688 459.676 169.688 457.707V457.566ZM173.074 457.812C173.074 458.961 173.305 459.863 173.766 460.52C174.227 461.168 174.859 461.492 175.664 461.492C176.695 461.492 177.434 461.105 177.879 460.332V455C177.426 454.227 176.695 453.84 175.688 453.84C174.875 453.84 174.234 454.172 173.766 454.836C173.305 455.5 173.074 456.492 173.074 457.812Z" fill="black"/>
<path d="M643.078 428.605H636.328V433.176H644.25V436H632.812V418.938H644.227V421.785H636.328V425.852H643.078V428.605ZM649.266 423.32L649.371 424.738C650.27 423.637 651.484 423.086 653.016 423.086C654.648 423.086 655.77 423.73 656.379 425.02C657.27 423.73 658.539 423.086 660.188 423.086C661.562 423.086 662.586 423.488 663.258 424.293C663.93 425.09 664.266 426.293 664.266 427.902V436H660.867V427.914C660.867 427.195 660.727 426.672 660.445 426.344C660.164 426.008 659.668 425.84 658.957 425.84C657.941 425.84 657.238 426.324 656.848 427.293L656.859 436H653.473V427.926C653.473 427.191 653.328 426.66 653.039 426.332C652.75 426.004 652.258 425.84 651.562 425.84C650.602 425.84 649.906 426.238 649.477 427.035V436H646.09V423.32H649.266ZM678.293 429.777C678.293 431.73 677.848 433.297 676.957 434.477C676.074 435.648 674.879 436.234 673.371 436.234C672.09 436.234 671.055 435.789 670.266 434.898V440.875H666.879V423.32H670.02L670.137 424.562C670.957 423.578 672.027 423.086 673.348 423.086C674.91 423.086 676.125 423.664 676.992 424.82C677.859 425.977 678.293 427.57 678.293 429.602V429.777ZM674.906 429.531C674.906 428.352 674.695 427.441 674.273 426.801C673.859 426.16 673.254 425.84 672.457 425.84C671.395 425.84 670.664 426.246 670.266 427.059V432.25C670.68 433.086 671.418 433.504 672.48 433.504C674.098 433.504 674.906 432.18 674.906 429.531ZM683.977 436H680.578V418H683.977V436ZM686.25 429.543C686.25 428.285 686.492 427.164 686.977 426.18C687.461 425.195 688.156 424.434 689.062 423.895C689.977 423.355 691.035 423.086 692.238 423.086C693.949 423.086 695.344 423.609 696.422 424.656C697.508 425.703 698.113 427.125 698.238 428.922L698.262 429.789C698.262 431.734 697.719 433.297 696.633 434.477C695.547 435.648 694.09 436.234 692.262 436.234C690.434 436.234 688.973 435.648 687.879 434.477C686.793 433.305 686.25 431.711 686.25 429.695V429.543ZM689.637 429.789C689.637 430.992 689.863 431.914 690.316 432.555C690.77 433.188 691.418 433.504 692.262 433.504C693.082 433.504 693.723 433.191 694.184 432.566C694.645 431.934 694.875 430.926 694.875 429.543C694.875 428.363 694.645 427.449 694.184 426.801C693.723 426.152 693.074 425.828 692.238 425.828C691.41 425.828 690.77 426.152 690.316 426.801C689.863 427.441 689.637 428.438 689.637 429.789ZM704.895 431.207L707.238 423.32H710.871L705.773 437.969L705.492 438.637C704.734 440.293 703.484 441.121 701.742 441.121C701.25 441.121 700.75 441.047 700.242 440.898V438.332L700.758 438.344C701.398 438.344 701.875 438.246 702.188 438.051C702.508 437.855 702.758 437.531 702.938 437.078L703.336 436.035L698.895 423.32H702.539L704.895 431.207ZM717.879 436.234C716.02 436.234 714.504 435.664 713.332 434.523C712.168 433.383 711.586 431.863 711.586 429.965V429.637C711.586 428.363 711.832 427.227 712.324 426.227C712.816 425.219 713.512 424.445 714.41 423.906C715.316 423.359 716.348 423.086 717.504 423.086C719.238 423.086 720.602 423.633 721.594 424.727C722.594 425.82 723.094 427.371 723.094 429.379V430.762H715.02C715.129 431.59 715.457 432.254 716.004 432.754C716.559 433.254 717.258 433.504 718.102 433.504C719.406 433.504 720.426 433.031 721.16 432.086L722.824 433.949C722.316 434.668 721.629 435.23 720.762 435.637C719.895 436.035 718.934 436.234 717.879 436.234ZM717.492 425.828C716.82 425.828 716.273 426.055 715.852 426.508C715.438 426.961 715.172 427.609 715.055 428.453H719.766V428.184C719.75 427.434 719.547 426.855 719.156 426.449C718.766 426.035 718.211 425.828 717.492 425.828ZM730.863 436.234C729.004 436.234 727.488 435.664 726.316 434.523C725.152 433.383 724.57 431.863 724.57 429.965V429.637C724.57 428.363 724.816 427.227 725.309 426.227C725.801 425.219 726.496 424.445 727.395 423.906C728.301 423.359 729.332 423.086 730.488 423.086C732.223 423.086 733.586 423.633 734.578 424.727C735.578 425.82 736.078 427.371 736.078 429.379V430.762H728.004C728.113 431.59 728.441 432.254 728.988 432.754C729.543 433.254 730.242 433.504 731.086 433.504C732.391 433.504 733.41 433.031 734.145 432.086L735.809 433.949C735.301 434.668 734.613 435.23 733.746 435.637C732.879 436.035 731.918 436.234 730.863 436.234ZM730.477 425.828C729.805 425.828 729.258 426.055 728.836 426.508C728.422 426.961 728.156 427.609 728.039 428.453H732.75V428.184C732.734 427.434 732.531 426.855 732.141 426.449C731.75 426.035 731.195 425.828 730.477 425.828ZM652.723 457.777C652.723 459.809 652.289 461.395 651.422 462.535C650.555 463.668 649.344 464.234 647.789 464.234C646.414 464.234 645.316 463.707 644.496 462.652L644.344 464H641.297V446H644.684V452.457C645.465 451.543 646.492 451.086 647.766 451.086C649.312 451.086 650.523 451.656 651.398 452.797C652.281 453.93 652.723 455.527 652.723 457.59V457.777ZM649.336 457.531C649.336 456.25 649.133 455.316 648.727 454.73C648.32 454.137 647.715 453.84 646.91 453.84C645.832 453.84 645.09 454.281 644.684 455.164V460.168C645.098 461.059 645.848 461.504 646.934 461.504C648.027 461.504 648.746 460.965 649.09 459.887C649.254 459.371 649.336 458.586 649.336 457.531ZM660.656 464.234C658.797 464.234 657.281 463.664 656.109 462.523C654.945 461.383 654.363 459.863 654.363 457.965V457.637C654.363 456.363 654.609 455.227 655.102 454.227C655.594 453.219 656.289 452.445 657.188 451.906C658.094 451.359 659.125 451.086 660.281 451.086C662.016 451.086 663.379 451.633 664.371 452.727C665.371 453.82 665.871 455.371 665.871 457.379V458.762H657.797C657.906 459.59 658.234 460.254 658.781 460.754C659.336 461.254 660.035 461.504 660.879 461.504C662.184 461.504 663.203 461.031 663.938 460.086L665.602 461.949C665.094 462.668 664.406 463.23 663.539 463.637C662.672 464.035 661.711 464.234 660.656 464.234ZM660.27 453.828C659.598 453.828 659.051 454.055 658.629 454.508C658.215 454.961 657.949 455.609 657.832 456.453H662.543V456.184C662.527 455.434 662.324 454.855 661.934 454.449C661.543 454.035 660.988 453.828 660.27 453.828ZM670.922 451.32L671.027 452.785C671.934 451.652 673.148 451.086 674.672 451.086C676.016 451.086 677.016 451.48 677.672 452.27C678.328 453.059 678.664 454.238 678.68 455.809V464H675.293V455.891C675.293 455.172 675.137 454.652 674.824 454.332C674.512 454.004 673.992 453.84 673.266 453.84C672.312 453.84 671.598 454.246 671.121 455.059V464H667.734V451.32H670.922ZM687.094 464.234C685.234 464.234 683.719 463.664 682.547 462.523C681.383 461.383 680.801 459.863 680.801 457.965V457.637C680.801 456.363 681.047 455.227 681.539 454.227C682.031 453.219 682.727 452.445 683.625 451.906C684.531 451.359 685.562 451.086 686.719 451.086C688.453 451.086 689.816 451.633 690.809 452.727C691.809 453.82 692.309 455.371 692.309 457.379V458.762H684.234C684.344 459.59 684.672 460.254 685.219 460.754C685.773 461.254 686.473 461.504 687.316 461.504C688.621 461.504 689.641 461.031 690.375 460.086L692.039 461.949C691.531 462.668 690.844 463.23 689.977 463.637C689.109 464.035 688.148 464.234 687.094 464.234ZM686.707 453.828C686.035 453.828 685.488 454.055 685.066 454.508C684.652 454.961 684.387 455.609 684.27 456.453H688.98V456.184C688.965 455.434 688.762 454.855 688.371 454.449C687.98 454.035 687.426 453.828 686.707 453.828ZM695.062 464V453.805H693.176V451.32H695.062V450.734C695.078 449.141 695.566 447.914 696.527 447.055C697.496 446.188 698.859 445.754 700.617 445.754C701.672 445.754 702.953 445.984 704.461 446.445L703.969 449.246C703.203 449.02 702.609 448.875 702.188 448.812C701.766 448.742 701.312 448.707 700.828 448.707C699.25 448.707 698.461 449.406 698.461 450.805V451.32H700.957V453.805H698.461V464H695.062ZM706.043 464H702.645V451.32H706.043V464ZM712.898 448.203V451.32H715.066V453.805H712.898V460.133C712.898 460.602 712.988 460.938 713.168 461.141C713.348 461.344 713.691 461.445 714.199 461.445C714.574 461.445 714.906 461.418 715.195 461.363V463.93C714.531 464.133 713.848 464.234 713.145 464.234C710.77 464.234 709.559 463.035 709.512 460.637V453.805H707.66V451.32H709.512V448.203H712.898ZM723.82 460.496C723.82 460.082 723.613 459.758 723.199 459.523C722.793 459.281 722.137 459.066 721.23 458.879C718.215 458.246 716.707 456.965 716.707 455.035C716.707 453.91 717.172 452.973 718.102 452.223C719.039 451.465 720.262 451.086 721.77 451.086C723.379 451.086 724.664 451.465 725.625 452.223C726.594 452.98 727.078 453.965 727.078 455.176H723.691C723.691 454.691 723.535 454.293 723.223 453.98C722.91 453.66 722.422 453.5 721.758 453.5C721.188 453.5 720.746 453.629 720.434 453.887C720.121 454.145 719.965 454.473 719.965 454.871C719.965 455.246 720.141 455.551 720.492 455.785C720.852 456.012 721.453 456.211 722.297 456.383C723.141 456.547 723.852 456.734 724.43 456.945C726.219 457.602 727.113 458.738 727.113 460.355C727.113 461.512 726.617 462.449 725.625 463.168C724.633 463.879 723.352 464.234 721.781 464.234C720.719 464.234 719.773 464.047 718.945 463.672C718.125 463.289 717.48 462.77 717.012 462.113C716.543 461.449 716.309 460.734 716.309 459.969H719.52C719.551 460.57 719.773 461.031 720.188 461.352C720.602 461.672 721.156 461.832 721.852 461.832C722.5 461.832 722.988 461.711 723.316 461.469C723.652 461.219 723.82 460.895 723.82 460.496Z" fill="black"/>
<path d="M371.5 431.078L373.797 418.938H377.301L373.516 436H369.977L367.199 424.586L364.422 436H360.883L357.098 418.938H360.602L362.91 431.055L365.723 418.938H368.699L371.5 431.078ZM378.086 429.543C378.086 428.285 378.328 427.164 378.812 426.18C379.297 425.195 379.992 424.434 380.898 423.895C381.812 423.355 382.871 423.086 384.074 423.086C385.785 423.086 387.18 423.609 388.258 424.656C389.344 425.703 389.949 427.125 390.074 428.922L390.098 429.789C390.098 431.734 389.555 433.297 388.469 434.477C387.383 435.648 385.926 436.234 384.098 436.234C382.27 436.234 380.809 435.648 379.715 434.477C378.629 433.305 378.086 431.711 378.086 429.695V429.543ZM381.473 429.789C381.473 430.992 381.699 431.914 382.152 432.555C382.605 433.188 383.254 433.504 384.098 433.504C384.918 433.504 385.559 433.191 386.02 432.566C386.48 431.934 386.711 430.926 386.711 429.543C386.711 428.363 386.48 427.449 386.02 426.801C385.559 426.152 384.91 425.828 384.074 425.828C383.246 425.828 382.605 426.152 382.152 426.801C381.699 427.441 381.473 428.438 381.473 429.789ZM399.309 426.496C398.848 426.434 398.441 426.402 398.09 426.402C396.809 426.402 395.969 426.836 395.57 427.703V436H392.184V423.32H395.383L395.477 424.832C396.156 423.668 397.098 423.086 398.301 423.086C398.676 423.086 399.027 423.137 399.355 423.238L399.309 426.496ZM405.555 430.914L404.336 432.133V436H400.949V418H404.336V427.973L404.992 427.129L408.238 423.32H412.305L407.723 428.605L412.703 436H408.812L405.555 430.914ZM419.371 436.234C417.512 436.234 415.996 435.664 414.824 434.523C413.66 433.383 413.078 431.863 413.078 429.965V429.637C413.078 428.363 413.324 427.227 413.816 426.227C414.309 425.219 415.004 424.445 415.902 423.906C416.809 423.359 417.84 423.086 418.996 423.086C420.73 423.086 422.094 423.633 423.086 424.727C424.086 425.82 424.586 427.371 424.586 429.379V430.762H416.512C416.621 431.59 416.949 432.254 417.496 432.754C418.051 433.254 418.75 433.504 419.594 433.504C420.898 433.504 421.918 433.031 422.652 432.086L424.316 433.949C423.809 434.668 423.121 435.23 422.254 435.637C421.387 436.035 420.426 436.234 419.371 436.234ZM418.984 425.828C418.312 425.828 417.766 426.055 417.344 426.508C416.93 426.961 416.664 427.609 416.547 428.453H421.258V428.184C421.242 427.434 421.039 426.855 420.648 426.449C420.258 426.035 419.703 425.828 418.984 425.828ZM433.645 426.496C433.184 426.434 432.777 426.402 432.426 426.402C431.145 426.402 430.305 426.836 429.906 427.703V436H426.52V423.32H429.719L429.812 424.832C430.492 423.668 431.434 423.086 432.637 423.086C433.012 423.086 433.363 423.137 433.691 423.238L433.645 426.496ZM436.445 424.176L434.852 423.25C435.523 422.195 435.871 421.105 435.895 419.98V418H438.59V419.816C438.59 420.52 438.395 421.281 438.004 422.102C437.613 422.922 437.094 423.613 436.445 424.176ZM445.129 432.496C445.129 432.082 444.922 431.758 444.508 431.523C444.102 431.281 443.445 431.066 442.539 430.879C439.523 430.246 438.016 428.965 438.016 427.035C438.016 425.91 438.48 424.973 439.41 424.223C440.348 423.465 441.57 423.086 443.078 423.086C444.688 423.086 445.973 423.465 446.934 424.223C447.902 424.98 448.387 425.965 448.387 427.176H445C445 426.691 444.844 426.293 444.531 425.98C444.219 425.66 443.73 425.5 443.066 425.5C442.496 425.5 442.055 425.629 441.742 425.887C441.43 426.145 441.273 426.473 441.273 426.871C441.273 427.246 441.449 427.551 441.801 427.785C442.16 428.012 442.762 428.211 443.605 428.383C444.449 428.547 445.16 428.734 445.738 428.945C447.527 429.602 448.422 430.738 448.422 432.355C448.422 433.512 447.926 434.449 446.934 435.168C445.941 435.879 444.66 436.234 443.09 436.234C442.027 436.234 441.082 436.047 440.254 435.672C439.434 435.289 438.789 434.77 438.32 434.113C437.852 433.449 437.617 432.734 437.617 431.969H440.828C440.859 432.57 441.082 433.031 441.496 433.352C441.91 433.672 442.465 433.832 443.16 433.832C443.809 433.832 444.297 433.711 444.625 433.469C444.961 433.219 445.129 432.895 445.129 432.496ZM379.375 461.504C380 461.504 380.508 461.332 380.898 460.988C381.289 460.645 381.492 460.188 381.508 459.617H384.684C384.676 460.477 384.441 461.266 383.98 461.984C383.52 462.695 382.887 463.25 382.082 463.648C381.285 464.039 380.402 464.234 379.434 464.234C377.621 464.234 376.191 463.66 375.145 462.512C374.098 461.355 373.574 459.762 373.574 457.73V457.508C373.574 455.555 374.094 453.996 375.133 452.832C376.172 451.668 377.598 451.086 379.41 451.086C380.996 451.086 382.266 451.539 383.219 452.445C384.18 453.344 384.668 454.543 384.684 456.043H381.508C381.492 455.387 381.289 454.855 380.898 454.449C380.508 454.035 379.992 453.828 379.352 453.828C378.562 453.828 377.965 454.117 377.559 454.695C377.16 455.266 376.961 456.195 376.961 457.484V457.836C376.961 459.141 377.16 460.078 377.559 460.648C377.957 461.219 378.562 461.504 379.375 461.504ZM386.09 457.543C386.09 456.285 386.332 455.164 386.816 454.18C387.301 453.195 387.996 452.434 388.902 451.895C389.816 451.355 390.875 451.086 392.078 451.086C393.789 451.086 395.184 451.609 396.262 452.656C397.348 453.703 397.953 455.125 398.078 456.922L398.102 457.789C398.102 459.734 397.559 461.297 396.473 462.477C395.387 463.648 393.93 464.234 392.102 464.234C390.273 464.234 388.812 463.648 387.719 462.477C386.633 461.305 386.09 459.711 386.09 457.695V457.543ZM389.477 457.789C389.477 458.992 389.703 459.914 390.156 460.555C390.609 461.188 391.258 461.504 392.102 461.504C392.922 461.504 393.562 461.191 394.023 460.566C394.484 459.934 394.715 458.926 394.715 457.543C394.715 456.363 394.484 455.449 394.023 454.801C393.562 454.152 392.914 453.828 392.078 453.828C391.25 453.828 390.609 454.152 390.156 454.801C389.703 455.441 389.477 456.438 389.477 457.789ZM403.363 451.32L403.469 452.738C404.367 451.637 405.582 451.086 407.113 451.086C408.746 451.086 409.867 451.73 410.477 453.02C411.367 451.73 412.637 451.086 414.285 451.086C415.66 451.086 416.684 451.488 417.355 452.293C418.027 453.09 418.363 454.293 418.363 455.902V464H414.965V455.914C414.965 455.195 414.824 454.672 414.543 454.344C414.262 454.008 413.766 453.84 413.055 453.84C412.039 453.84 411.336 454.324 410.945 455.293L410.957 464H407.57V455.926C407.57 455.191 407.426 454.66 407.137 454.332C406.848 454.004 406.355 453.84 405.66 453.84C404.699 453.84 404.004 454.238 403.574 455.035V464H400.188V451.32H403.363ZM432.391 457.777C432.391 459.73 431.945 461.297 431.055 462.477C430.172 463.648 428.977 464.234 427.469 464.234C426.188 464.234 425.152 463.789 424.363 462.898V468.875H420.977V451.32H424.117L424.234 452.562C425.055 451.578 426.125 451.086 427.445 451.086C429.008 451.086 430.223 451.664 431.09 452.82C431.957 453.977 432.391 455.57 432.391 457.602V457.777ZM429.004 457.531C429.004 456.352 428.793 455.441 428.371 454.801C427.957 454.16 427.352 453.84 426.555 453.84C425.492 453.84 424.762 454.246 424.363 455.059V460.25C424.777 461.086 425.516 461.504 426.578 461.504C428.195 461.504 429.004 460.18 429.004 457.531Z" fill="black"/>
<path d="M684 495C681.016 495 678.155 496.185 676.045 498.295C673.935 500.405 672.75 503.266 672.75 506.25C672.75 509.234 673.935 512.095 676.045 514.205C678.155 516.315 681.016 517.5 684 517.5C686.984 517.5 689.845 516.315 691.955 514.205C694.065 512.095 695.25 509.234 695.25 506.25C695.25 503.266 694.065 500.405 691.955 498.295C689.845 496.185 686.984 495 684 495ZM657.75 502.5C655.761 502.5 653.853 503.29 652.447 504.697C651.04 506.103 650.25 508.011 650.25 510C650.25 511.989 651.04 513.897 652.447 515.303C653.853 516.71 655.761 517.5 657.75 517.5C659.739 517.5 661.647 516.71 663.053 515.303C664.46 513.897 665.25 511.989 665.25 510C665.25 508.011 664.46 506.103 663.053 504.697C661.647 503.29 659.739 502.5 657.75 502.5ZM710.25 502.5C708.261 502.5 706.353 503.29 704.947 504.697C703.54 506.103 702.75 508.011 702.75 510C702.75 511.989 703.54 513.897 704.947 515.303C706.353 516.71 708.261 517.5 710.25 517.5C712.239 517.5 714.147 516.71 715.553 515.303C716.96 513.897 717.75 511.989 717.75 510C717.75 508.011 716.96 506.103 715.553 504.697C714.147 503.29 712.239 502.5 710.25 502.5Z" fill="white"/>
<path d="M714 582.75H654C649.875 582.75 646.5 579.375 646.5 575.25V542.25C646.5 538.125 649.875 534.75 654 534.75H714C718.125 534.75 721.5 538.125 721.5 542.25V575.25C721.5 579.375 718.125 582.75 714 582.75Z" fill="#6EC6AF"/>
<path d="M706.5 542.25H661.5C661.5 546.375 658.125 549.75 654 549.75V567.75C658.125 567.75 661.5 571.125 661.5 575.25H706.5C706.5 571.125 709.875 567.75 714 567.75V549.75C709.875 549.75 706.5 546.375 706.5 542.25Z" fill="#C5E8DF"/>
<path d="M714 585H654C648.6 585 644.25 580.65 644.25 575.25V542.25C644.25 536.85 648.6 532.5 654 532.5H714C719.4 532.5 723.75 536.85 723.75 542.25V575.25C723.75 580.65 719.4 585 714 585ZM654 537C651.075 537 648.75 539.325 648.75 542.25V575.25C648.75 578.175 651.075 580.5 654 580.5H714C716.925 580.5 719.25 578.175 719.25 575.25V542.25C719.25 539.325 716.925 537 714 537H654Z" fill="#444B54"/>
<path d="M686.85 557.175L682.2 556.05C680.775 555.675 679.875 554.475 679.875 553.05C679.875 551.325 681.3 549.9 683.025 549.9H685.275C686.85 549.9 688.125 551.175 688.125 552.75C688.125 554.025 689.1 555 690.375 555C691.65 555 692.625 554.025 692.625 552.75C692.625 549 689.85 545.925 686.25 545.475V544.5C686.25 543.225 685.275 542.25 684 542.25C682.725 542.25 681.75 543.225 681.75 544.5V545.55C678.15 546.15 675.375 549.3 675.375 553.05C675.375 556.575 677.775 559.575 681.15 560.475L685.8 561.6C687.225 561.975 688.125 563.175 688.125 564.6C688.125 566.325 686.7 567.75 684.975 567.75H682.725C681.15 567.75 679.875 566.475 679.875 564.9C679.875 563.625 678.9 562.65 677.625 562.65C676.35 562.65 675.375 563.625 675.375 564.9C675.375 568.65 678.15 571.725 681.75 572.175V573.15C681.75 574.425 682.725 575.4 684 575.4C685.275 575.4 686.25 574.425 686.25 573.15V572.1C689.85 571.5 692.625 568.35 692.625 564.6C692.625 561 690.225 558 686.85 557.175Z" fill="white"/>
<path d="M684 519.75C676.575 519.75 670.5 513.675 670.5 506.25C670.5 498.825 676.575 492.75 684 492.75C691.425 492.75 697.5 498.825 697.5 506.25C697.5 513.675 691.425 519.75 684 519.75ZM684 497.25C679.05 497.25 675 501.3 675 506.25C675 511.2 679.05 515.25 684 515.25C688.95 515.25 693 511.2 693 506.25C693 501.3 688.95 497.25 684 497.25ZM691.95 529.125C691.35 529.125 690.825 528.9 690.375 528.45C688.65 526.725 686.4 525.825 684 525.825C681.6 525.825 679.35 526.725 677.625 528.45C676.725 529.35 675.3 529.35 674.475 528.45C673.575 527.55 673.575 526.125 674.475 525.3C677.025 522.75 680.4 521.325 684 521.325C687.6 521.325 690.975 522.75 693.525 525.3C694.425 526.2 694.425 527.625 693.525 528.45C693.075 528.9 692.55 529.125 691.95 529.125ZM657.75 519.75C652.35 519.75 648 515.4 648 510C648 504.6 652.35 500.25 657.75 500.25C663.15 500.25 667.5 504.6 667.5 510C667.5 515.4 663.15 519.75 657.75 519.75ZM657.75 504.75C654.825 504.75 652.5 507.075 652.5 510C652.5 512.925 654.825 515.25 657.75 515.25C660.675 515.25 663 512.925 663 510C663 507.075 660.675 504.75 657.75 504.75ZM665.7 529.125C665.1 529.125 664.575 528.9 664.125 528.45C662.4 526.725 660.15 525.825 657.75 525.825C655.35 525.825 653.1 526.725 651.375 528.45C650.475 529.35 649.05 529.35 648.225 528.45C647.325 527.55 647.325 526.125 648.225 525.3C650.775 522.75 654.15 521.325 657.75 521.325C661.35 521.325 664.725 522.75 667.275 525.3C668.175 526.2 668.175 527.625 667.275 528.45C666.825 528.9 666.3 529.125 665.7 529.125ZM710.25 519.75C704.85 519.75 700.5 515.4 700.5 510C700.5 504.6 704.85 500.25 710.25 500.25C715.65 500.25 720 504.6 720 510C720 515.4 715.65 519.75 710.25 519.75ZM710.25 504.75C707.325 504.75 705 507.075 705 510C705 512.925 707.325 515.25 710.25 515.25C713.175 515.25 715.5 512.925 715.5 510C715.5 507.075 713.175 504.75 710.25 504.75ZM718.2 529.125C717.6 529.125 717.075 528.9 716.625 528.45C714.9 526.725 712.65 525.825 710.25 525.825C707.85 525.825 705.6 526.725 703.875 528.45C702.975 529.35 701.55 529.35 700.725 528.45C699.825 527.55 699.825 526.125 700.725 525.3C703.275 522.75 706.65 521.325 710.25 521.325C713.85 521.325 717.225 522.75 719.775 525.3C720.675 526.2 720.675 527.625 719.775 528.45C719.325 528.9 718.8 529.125 718.2 529.125Z" fill="#444B54"/>
<path d="M436.6 558.45L420.4 563.925C420.925 563.175 421.225 562.199 421.074 561.224C420.849 558.974 418.9 557.399 416.65 557.399H405.025C400.525 551.024 388.375 551.024 388.375 551.024H378.625V570.374L401.575 577.499C401.575 577.499 408.475 579.524 413.5 577.499C417.7 575.774 434.725 566.924 440.05 564.074C441.099 563.55 442.525 561.974 441.699 560.099C441.175 558.6 439.9 557.55 436.6 558.45Z" fill="#F4CAB4"/>
<path d="M383.275 551.025H379.375V570.3L383.275 571.5C383.275 571.35 383.275 571.125 383.275 570.975V551.025Z" fill="#DBB5A2"/>
<path d="M408.175 580.575C404.35 580.575 401.05 579.6 400.9 579.6L377.875 572.475C376.9 572.175 376.3 571.275 376.3 570.3V550.95C376.3 549.675 377.275 548.7 378.55 548.7H388.3C388.825 548.7 400.6 548.775 406.075 555.075H416.575C419.875 555.075 422.725 557.4 423.175 560.55L435.775 556.275C435.85 556.275 435.85 556.275 435.925 556.275C436.975 555.975 437.8 555.825 438.7 555.825C440.35 555.825 442.6 556.425 443.8 559.2C445 562.05 443.275 564.825 441.1 566.025C434.425 569.55 418.525 577.875 414.325 579.525C412.6 580.275 410.5 580.575 408.175 580.575ZM402.25 575.325C402.25 575.325 405.025 576.15 408.175 576.15C409.975 576.15 411.475 575.925 412.675 575.4C416.8 573.75 433.9 564.75 439.075 562.05C439.075 562.05 439.975 561.525 439.75 561C439.525 560.475 439.45 560.4 438.775 560.4C438.4 560.4 437.875 560.475 437.275 560.625L421.15 566.1C420.7 566.25 420.175 566.25 419.725 566.1C419.05 565.875 418.525 565.35 418.3 564.675C418.075 564 418.15 563.25 418.6 562.65C418.75 562.425 418.975 561.975 418.9 561.375C418.825 560.4 417.85 559.575 416.725 559.575H405.025C404.275 559.575 403.6 559.2 403.15 558.6C400 554.1 391.375 553.125 388.3 553.125H380.8V568.575L402.25 575.325Z" fill="#454B54"/>
<path d="M416.875 568.05H399.925C398.65 568.05 397.675 567.075 397.675 565.8C397.675 564.525 398.65 563.55 399.925 563.55H416.875C418 563.55 418.9 562.65 418.9 561.6C418.9 561.45 418.9 561.3 418.825 561.225C418.525 560.025 419.35 558.825 420.55 558.525C421.75 558.225 422.95 559.05 423.25 560.25C423.325 560.7 423.4 561.15 423.4 561.6C423.4 565.2 420.475 568.05 416.875 568.05Z" fill="#454B54"/>
<path d="M378.625 571.05V550.425C378.625 549.075 377.5 547.95 376.075 547.95H364.6C364.3 547.95 364.15 548.025 364 548.1C364 548.25 364 548.325 364 548.475C364 557.7 366.7 566.325 371.35 573.6H376.075C377.5 573.525 378.625 572.4 378.625 571.05Z" fill="#7CA5C6"/>
<path d="M376.075 575.775H371.35C370.075 575.775 369.1 574.8 369.1 573.525C369.1 572.25 370.075 571.275 371.35 571.275H376.075C376.225 571.275 376.375 571.2 376.375 571.05V550.425C376.375 550.275 376.225 550.2 376.075 550.2H365.425C365.05 550.5 364.525 550.65 364 550.65C362.725 550.65 361.75 549.675 361.75 548.4C361.75 548.325 361.75 548.25 361.75 548.1V548.025C361.75 547.2 362.2 546.45 362.95 546.075C363.475 545.775 364 545.7 364.675 545.7H376.075C378.7 545.7 380.875 547.8 380.875 550.425V571.05C380.875 573.6 378.7 575.775 376.075 575.775Z" fill="#454B54"/>
<path d="M408.55 501.675C405.891 501.675 403.258 502.199 400.801 503.216C398.344 504.234 396.111 505.726 394.231 507.606C392.351 509.486 390.859 511.719 389.841 514.176C388.824 516.633 388.3 519.266 388.3 521.925C388.3 524.584 388.824 527.218 389.841 529.674C390.859 532.131 392.351 534.364 394.231 536.244C396.111 538.124 398.344 539.616 400.801 540.634C403.258 541.651 405.891 542.175 408.55 542.175C411.209 542.175 413.842 541.651 416.299 540.634C418.756 539.616 420.989 538.124 422.869 536.244C424.749 534.364 426.241 532.131 427.259 529.674C428.276 527.218 428.8 524.584 428.8 521.925C428.8 519.266 428.276 516.633 427.259 514.176C426.241 511.719 424.749 509.486 422.869 507.606C420.989 505.726 418.756 504.234 416.299 503.216C413.842 502.199 411.209 501.675 408.55 501.675Z" fill="#F8E390"/>
<path d="M408.55 508.125C400.975 508.125 394.825 514.275 394.825 521.85C394.825 529.425 400.975 535.575 408.55 535.575C416.125 535.575 422.275 529.5 422.275 521.925C422.275 514.35 416.125 508.125 408.55 508.125Z" fill="white"/>
<path d="M408.475 532.125C407.5 532.125 406.75 531.45 406.6 530.55C405.925 530.325 405.25 529.95 404.725 529.425C404.2 528.9 403.675 528.225 403.375 527.475C402.925 526.5 403.375 525.45 404.35 525C405.25 524.625 406.45 525.075 406.825 525.975C406.975 526.275 407.125 526.5 407.275 526.65C407.425 526.8 407.65 526.875 407.8 526.95C408.325 527.1 409.075 527.1 409.525 526.95C409.75 526.875 409.9 526.8 409.975 526.65C410.125 526.5 410.2 526.35 410.275 526.125C410.35 525.9 410.425 525.6 410.425 525.375C410.425 524.925 410.35 524.7 410.275 524.625C410.2 524.475 410.05 524.325 409.825 524.175C409.6 524.025 409.3 523.875 409 523.8C408.55 523.65 408.1 523.575 407.65 523.425C407.125 523.275 406.6 523.125 406.15 522.9C405.55 522.675 405.025 522.375 404.575 521.925C404.05 521.475 403.675 520.95 403.375 520.35C403.075 519.75 402.925 518.925 402.925 518.025C402.925 517.35 403.075 516.75 403.3 516.15C403.525 515.55 403.9 514.95 404.35 514.425C404.8 513.9 405.4 513.525 406.15 513.225C406.3 513.15 406.525 513.075 406.675 513.075C406.825 512.25 407.575 511.575 408.55 511.575C409.45 511.575 410.2 512.25 410.425 513.075C410.65 513.15 410.8 513.225 411.025 513.3C411.7 513.6 412.3 514.05 412.825 514.65C413.275 515.175 413.65 515.775 413.8 516.525C413.95 516.975 413.875 517.5 413.65 517.95C413.425 518.4 413.05 518.7 412.525 518.85C412.375 518.925 412.15 518.925 411.925 518.925C411.1 518.925 410.35 518.4 410.125 517.65C410.05 517.425 409.975 517.275 409.825 517.125C409.75 516.975 409.6 516.9 409.375 516.825C408.925 516.6 408.025 516.6 407.575 516.825C407.35 516.9 407.2 517.05 407.05 517.125C406.9 517.275 406.825 517.425 406.75 517.575C406.75 517.725 406.75 517.875 406.75 518.1C406.75 518.625 406.825 518.775 406.825 518.85C406.9 519 406.975 519.075 407.05 519.15C407.2 519.3 407.35 519.375 407.575 519.45C407.95 519.6 408.325 519.75 408.7 519.825C409.225 519.975 409.675 520.125 410.125 520.275C410.8 520.5 411.4 520.725 411.925 521.1C412.6 521.55 413.125 522.075 413.5 522.75C413.95 523.5 414.175 524.4 414.175 525.45C414.175 526.125 414.1 526.8 413.875 527.4C413.65 528.075 413.275 528.75 412.825 529.275C412.3 529.8 411.7 530.25 411.025 530.55C410.8 530.625 410.575 530.7 410.35 530.775C410.2 531.525 409.375 532.125 408.475 532.125Z" fill="#454B54"/>
<path d="M408.55 544.425C396.175 544.425 386.05 534.3 386.05 521.925C386.05 509.55 396.175 499.425 408.55 499.425C420.925 499.425 431.05 509.55 431.05 521.925C431.05 534.3 421 544.425 408.55 544.425ZM408.55 503.925C398.65 503.925 390.55 512.025 390.55 521.925C390.55 531.825 398.65 539.925 408.55 539.925C418.45 539.925 426.55 531.825 426.55 521.925C426.55 512.025 418.525 503.925 408.55 503.925Z" fill="#454B54"/>
<path d="M157.602 562.234C151.323 562.234 146.234 567.323 146.234 573.602C146.234 579.88 151.323 584.969 157.602 584.969C163.88 584.969 168.969 579.88 168.969 573.602C168.969 567.323 163.88 562.234 157.602 562.234ZM134.109 584.969H85.6094C81.4414 584.969 78.0312 581.559 78.0312 577.391V501.609C78.0312 497.441 81.4414 494.031 85.6094 494.031H126.531C134.867 494.031 141.688 500.852 141.688 509.188V577.391C141.688 581.559 138.277 584.969 134.109 584.969Z" fill="white"/>
<path d="M118.271 547.003C118.271 544.198 116.908 541.622 114.634 540.03L107.586 535.181C106.6 534.423 105.995 533.287 105.995 531.997C105.995 529.876 107.737 528.133 109.859 528.133C111.45 528.133 112.815 529.042 113.42 530.482C113.876 531.618 115.24 532.15 116.376 531.694C117.513 531.24 118.044 529.876 117.588 528.74C116.604 526.314 114.557 524.572 112.133 523.889V523.586C112.133 522.298 111.147 521.312 109.859 521.312C108.572 521.312 107.586 522.298 107.586 523.586V523.889C104.025 524.874 101.448 528.133 101.448 531.997C101.448 534.725 102.736 537.227 105.009 538.818L112.057 543.743C113.119 544.501 113.799 545.638 113.799 546.927C113.799 549.048 112.057 550.792 109.935 550.792C108.419 550.792 106.979 549.881 106.374 548.443C105.842 547.306 104.555 546.775 103.418 547.229C102.281 547.76 101.751 549.048 102.206 550.185C103.267 552.534 105.237 554.277 107.661 554.96V555.414C107.661 556.702 108.647 557.688 109.935 557.688C111.224 557.688 112.208 556.702 112.208 555.414V555.111C115.694 554.126 118.271 550.867 118.271 547.003Z" fill="#6EC6AF"/>
<path d="M118.953 587.242H85.6094C80.1537 587.242 75.7578 582.846 75.7578 577.391V501.609C75.7578 496.154 80.1537 491.758 85.6094 491.758H126.531C131.229 491.758 135.55 493.577 138.884 496.912C142.142 500.169 143.961 504.565 143.961 509.188C143.961 510.475 142.975 511.461 141.688 511.461C140.4 511.461 139.414 510.475 139.414 509.188C139.414 505.777 138.049 502.518 135.625 500.094C133.201 497.669 129.941 496.305 126.531 496.305H85.6094C82.6536 496.305 80.3047 498.654 80.3047 501.609V577.391C80.3047 580.346 82.6536 582.695 85.6094 582.695H118.953C120.241 582.695 121.227 583.681 121.227 584.969C121.227 586.256 120.241 587.242 118.953 587.242Z" fill="#444B54"/>
<path d="M141.688 547.078C140.4 547.078 139.414 546.092 139.414 544.805V519.039C139.414 517.751 140.4 516.766 141.688 516.766C142.975 516.766 143.961 517.751 143.961 519.039V544.805C143.961 546.092 142.9 547.078 141.688 547.078ZM141.688 511.461H134.109C128.654 511.461 124.258 507.065 124.258 501.609V494.031C124.258 492.744 125.244 491.758 126.531 491.758C127.819 491.758 128.805 492.744 128.805 494.031V501.609C128.805 504.565 131.154 506.914 134.109 506.914H141.688C142.975 506.914 143.961 507.9 143.961 509.188C143.961 510.475 142.975 511.461 141.688 511.461Z" fill="#444B54"/>
<path d="M141.688 554.656C133.318 554.656 126.531 561.443 126.531 569.812C126.531 578.182 133.318 584.969 141.688 584.969C150.057 584.969 156.844 578.182 156.844 569.812C156.844 561.443 150.057 554.656 141.688 554.656Z" fill="white"/>
<path d="M165.71 562.689C164.725 561.931 163.285 562.159 162.527 563.143C161.77 564.129 161.997 565.569 162.982 566.327C165.331 568.069 166.62 570.721 166.62 573.602C166.62 578.603 162.527 582.695 157.526 582.695C156.314 582.695 155.1 582.467 154.04 582.013C157.147 578.831 159.042 574.587 159.042 569.812C159.042 560.189 151.236 552.383 141.612 552.383C131.987 552.383 124.182 560.189 124.182 569.812C124.182 579.436 131.987 587.242 141.612 587.242C144.719 587.242 147.599 586.409 150.099 585.044C152.221 586.409 154.798 587.242 157.526 587.242C165.029 587.242 171.167 581.104 171.167 573.602C171.242 569.283 169.197 565.19 165.71 562.689ZM128.805 569.812C128.805 562.689 134.564 556.93 141.687 556.93C148.811 556.93 154.57 562.689 154.57 569.812C154.57 576.936 148.811 582.695 141.687 582.695C134.564 582.695 128.805 576.936 128.805 569.812Z" fill="#6EC6AF"/>
</svg>
