<?xml version="1.0" encoding="utf-8"?>
<!-- Generator: Adobe Illustrator 19.0.0, SVG Export Plug-In . SVG Version: 6.00 Build 0)  -->
<svg version="1.1" id="visual" xmlns="http://www.w3.org/2000/svg" xmlns:xlink="http://www.w3.org/1999/xlink" x="0px" y="0px"
	 viewBox="0 -20 960 600" style="enable-background:new 0 -20 960 600;" xml:space="preserve">
<style type="text/css">
	.st0{fill:#6B86BD;}
</style>
<path class="st0" d="M19.1-16.2c40.7,8.1,76.4,32.9,97.5,68.7c2.6,4.4,5,8.9,7.1,13.3c13.3,28.5,14.3,56.9,11.8,85.4
	s-8.5,57.1-22.7,85.8c-14.1,28.7-36.5,57.3-39.1,86c-2.7,28.7,14.3,57.3,29,85.8c14.6,28.5,27,56.9,13.3,85.4
	c-8.2,17.1-25.8,34.3-42.8,48.4c-17.5,14.5-37.7,25.6-59.3,32.8L0,580v-14.3c0-14.4,0-43,0-71.5s0-56.9,0-85.4s0-57.1,0-85.8
	s0-57.3,0-86s0-57.3,0-85.8s0-56.9,0-85.4S0,8.7,0-5.7V-20L19.1-16.2z"/>
</svg>
