<?xml version="1.0" encoding="utf-8"?>
<!-- Generator: Adobe Illustrator 19.0.0, SVG Export Plug-In . SVG Version: 6.00 Build 0)  -->
<svg version="1.1" id="visual" xmlns="http://www.w3.org/2000/svg" xmlns:xlink="http://www.w3.org/1999/xlink" x="0px" y="0px"
	 viewBox="0 -20 960 600" style="enable-background:new 0 -20 960 600;" xml:space="preserve">
<style type="text/css">
	.st0{fill:#6B86BD;}
</style>
<path class="st0" d="M950.8,577.2c-21.8-6.7-39.3-22.9-47.8-44.1c-4.8-12-11.6-25.5-21.3-38.9c-20.7-28.5-54.7-56.9-71.4-85.4
	c-16.6-28.5-16-57.1,6.9-85.8c22.8-28.7,67.8-57.3,69.8-86s-39-57.3-40.5-85.8s36.5-56.9,43.8-85.4c4.8-20.2-16.8-20.5-21.2-39.3
	C865.5,11.4,892-2.4,905.8-9.4C918.1-15.7,960-20,960-20c0,14.4,0,57.3,0,85.8s0,56.9,0,85.4s0,57.1,0,85.8s0,57.3,0,86
	s0,57.3,0,85.8s0,56.9,0,85.4s0,57.1,0,71.5V580L950.8,577.2z"/>
</svg>
