<svg xmlns="http://www.w3.org/2000/svg" width="46" height="36" viewBox="0 0 46 36"><defs><style>.a{fill:#ddd;}</style></defs><path class="a" d="M24.778-102.539a22.751,22.751,0,0,0-6.44,4.728,15.406,15.406,0,0,0-3.764,7.548l2.175.332a7,7,0,0,1,5.6,2.986,10.582,10.582,0,0,1,1.756,5.972,9.744,9.744,0,0,1-2.091,6.055q-2.091,2.737-6.44,2.737a10.351,10.351,0,0,1-3.513-.664A9.914,9.914,0,0,1,8.636-75a10.846,10.846,0,0,1-2.593-4.147,18.922,18.922,0,0,1-1-6.636A21.31,21.31,0,0,1,9.389-98.89a32.1,32.1,0,0,1,11.04-9.29Zm26.262,0a22.751,22.751,0,0,0-6.44,4.728,15.406,15.406,0,0,0-3.764,7.548l2.175.332a7,7,0,0,1,5.6,2.986,10.582,10.582,0,0,1,1.756,5.972,9.744,9.744,0,0,1-2.091,6.055q-2.091,2.737-6.44,2.737a10.351,10.351,0,0,1-3.513-.664A9.914,9.914,0,0,1,34.9-75a10.846,10.846,0,0,1-2.593-4.147,18.922,18.922,0,0,1-1-6.636A21.31,21.31,0,0,1,35.651-98.89a32.1,32.1,0,0,1,11.04-9.29Z" transform="translate(-5.04 108.18)"></path></svg>