<?xml version="1.0" encoding="utf-8"?>
<!-- Generator: Adobe Illustrator 19.0.0, SVG Export Plug-In . SVG Version: 6.00 Build 0)  -->
<svg version="1.1" id="visual" xmlns="http://www.w3.org/2000/svg" xmlns:xlink="http://www.w3.org/1999/xlink" x="0px" y="0px"
	 viewBox="480 637.2 1920 182.8" style="enable-background:new 480 637.2 1920 182.8;" >
<style type="text/css">
	.st0{fill:#6B86BD;}
</style>
<path class="st0" d="M480,652l40-3.8c40-3.9,120-11.5,200-11s160,9.1,240,17.6s160,16.9,240,12.2s160-22.3,240-22.7
	c80-0.3,160,16.7,240,22.2s160-0.5,240-6.2c80-5.6,160-11,240-9.8s160,8.8,200,12.7l40,3.8v154h-40c-40,0-120,0-200,0s-160,0-240,0
	s-160,0-240,0s-160,0-240,0s-160,0-240,0s-160,0-240,0s-160,0-240,0s-160,0-200,0h-40V652z"/>
</svg>
