<svg id="visual" viewBox="0 0 1920 644" width="1920" height="644" xmlns="http://www.w3.org/2000/svg" xmlns:xlink="http://www.w3.org/1999/xlink" version="1.1"><path d="M0 508L45.7 512.7C91.3 517.3 182.7 526.7 274.2 514.7C365.7 502.7 457.3 469.3 548.8 466.5C640.3 463.7 731.7 491.3 823 500.8C914.3 510.3 1005.7 501.7 1097 492.2C1188.3 482.7 1279.7 472.3 1371.2 479.8C1462.7 487.3 1554.3 512.7 1645.8 528.7C1737.3 544.7 1828.7 551.3 1874.3 554.7L1920 558L1920 645L1874.3 645C1828.7 645 1737.3 645 1645.8 645C1554.3 645 1462.7 645 1371.2 645C1279.7 645 1188.3 645 1097 645C1005.7 645 914.3 645 823 645C731.7 645 640.3 645 548.8 645C457.3 645 365.7 645 274.2 645C182.7 645 91.3 645 45.7 645L0 645Z" fill="#6B86BD" stroke-linecap="round" stroke-linejoin="miter"></path></svg>