<svg xmlns="http://www.w3.org/2000/svg"  viewBox="0 0 128 128" width="256px" height="256px"><path fill="#f4cab4" d="M108.8,88.6L87.2,95.9c0.7-1,1.1-2.301,0.899-3.601c-0.3-3-2.899-5.1-5.899-5.1H66.7 c-6-8.5-22.2-8.5-22.2-8.5h-13v25.8l30.6,9.5c0,0,9.2,2.7,15.9,0c5.6-2.3,28.3-14.1,35.4-17.9c1.399-0.699,3.3-2.8,2.199-5.3 C114.9,88.8,113.2,87.4,108.8,88.6"/><path fill="#dbb5a2" d="M37.7,78.7h-5.2v25.7l5.2,1.6c0-0.2,0-0.5,0-0.7V78.7"/><path fill="#454b54" d="M70.9,118.1L70.9,118.1c-5.1,0-9.5-1.3-9.7-1.3l-30.7-9.5c-1.3-0.4-2.1-1.6-2.1-2.9V78.6 c0-1.7,1.3-3,3-3h13c0.7,0,16.4,0.1,23.7,8.5h14c4.4,0,8.2,3.1,8.8,7.3l16.8-5.7c0.1,0,0.1,0,0.2,0c1.4-0.4,2.5-0.6,3.7-0.6 c2.2,0,5.2,0.8,6.8,4.5c1.6,3.8-0.7,7.5-3.6,9.1c-8.9,4.7-30.1,15.8-35.7,18C76.8,117.7,74,118.1,70.9,118.1z M63,111.1 c0,0,3.7,1.1,7.9,1.1l0,0c2.4,0,4.4-0.3,6-1c5.5-2.2,28.3-14.2,35.2-17.8c0,0,1.2-0.7,0.9-1.4c-0.3-0.7-0.4-0.8-1.3-0.8 c-0.5,0-1.2,0.1-2,0.3l-21.5,7.3c-0.6,0.2-1.3,0.2-1.9,0c-0.9-0.3-1.6-1-1.9-1.9s-0.2-1.9,0.4-2.7c0.2-0.3,0.5-0.9,0.4-1.7 c-0.1-1.3-1.4-2.4-2.9-2.4H66.7c-1,0-1.9-0.5-2.5-1.3c-4.2-6-15.7-7.3-19.8-7.3h-10v20.6L63,111.1L63,111.1z"/><path fill="#454b54" d="M82.5,101.4H59.9c-1.7,0-3-1.3-3-3s1.3-3,3-3h22.6c1.5,0,2.7-1.2,2.7-2.6c0-0.2,0-0.4-0.1-0.5 c-0.4-1.6,0.7-3.2,2.3-3.6c1.6-0.4,3.2,0.7,3.6,2.3c0.1,0.6,0.2,1.2,0.2,1.8C91.2,97.6,87.3,101.4,82.5,101.4z"/><path fill="#7ca5c6" d="M31.5,105.4V77.9c0-1.8-1.5-3.3-3.4-3.3H12.8c-0.4,0-0.6,0.1-0.8,0.2c0,0.2,0,0.3,0,0.5 c0,12.3,3.6,23.8,9.8,33.5h6.3C30,108.7,31.5,107.2,31.5,105.4z"/><path fill="#454b54" d="M28.1,111.7h-6.3c-1.7,0-3-1.3-3-3s1.3-3,3-3h6.3c0.2,0,0.4-0.1,0.4-0.3V77.9c0-0.2-0.2-0.3-0.4-0.3 H13.9c-0.5,0.4-1.2,0.6-1.9,0.6c-1.7,0-3-1.3-3-3c0-0.1,0-0.2,0-0.4v-0.1c0-1.1,0.6-2.1,1.6-2.6c0.7-0.4,1.4-0.5,2.3-0.5h15.2 c3.5,0,6.4,2.8,6.4,6.3v27.5C34.5,108.8,31.6,111.7,28.1,111.7z"/><path fill="#f8e390" d="M71.4 12.899999999999999A27 27 0 1 0 71.4 66.9A27 27 0 1 0 71.4 12.899999999999999Z"/><path fill="#fff" d="M71.4,21.5c-10.1,0-18.3,8.2-18.3,18.3s8.2,18.3,18.3,18.3S89.7,50,89.7,39.9S81.5,21.5,71.4,21.5z"/><path fill="#454b54" d="M71.3,53.5c-1.3,0-2.3-0.9-2.5-2.1c-0.9-0.3-1.8-0.8-2.5-1.5s-1.4-1.6-1.8-2.6 c-0.6-1.3,0-2.7,1.3-3.3c1.2-0.5,2.8,0.1,3.3,1.3c0.2,0.4,0.4,0.7,0.6,0.9s0.5,0.3,0.7,0.4c0.7,0.2,1.7,0.2,2.3,0 c0.3-0.1,0.5-0.2,0.6-0.4c0.2-0.2,0.3-0.4,0.4-0.7s0.2-0.7,0.2-1c0-0.6-0.1-0.9-0.2-1c-0.1-0.2-0.3-0.4-0.6-0.6 c-0.3-0.2-0.7-0.4-1.1-0.5c-0.6-0.2-1.2-0.3-1.8-0.5c-0.7-0.2-1.4-0.4-2-0.7c-0.8-0.3-1.5-0.7-2.1-1.3c-0.7-0.6-1.2-1.3-1.6-2.1 s-0.6-1.9-0.6-3.1c0-0.9,0.2-1.7,0.5-2.5s0.8-1.6,1.4-2.3c0.6-0.7,1.4-1.2,2.4-1.6c0.2-0.1,0.5-0.2,0.7-0.2c0.2-1.1,1.2-2,2.5-2 c1.2,0,2.2,0.9,2.5,2c0.3,0.1,0.5,0.2,0.8,0.3c0.9,0.4,1.7,1,2.4,1.8c0.6,0.7,1.1,1.5,1.3,2.5c0.2,0.6,0.1,1.3-0.2,1.9 c-0.3,0.6-0.8,1-1.5,1.2c-0.2,0.1-0.5,0.1-0.8,0.1c-1.1,0-2.1-0.7-2.4-1.7c-0.1-0.3-0.2-0.5-0.4-0.7c-0.1-0.2-0.3-0.3-0.6-0.4 c-0.6-0.3-1.8-0.3-2.4,0c-0.3,0.1-0.5,0.3-0.7,0.4c-0.2,0.2-0.3,0.4-0.4,0.6c0,0.2,0,0.4,0,0.7c0,0.7,0.1,0.9,0.1,1 c0.1,0.2,0.2,0.3,0.3,0.4c0.2,0.2,0.4,0.3,0.7,0.4c0.5,0.2,1,0.4,1.5,0.5c0.7,0.2,1.3,0.4,1.9,0.6c0.9,0.3,1.7,0.6,2.4,1.1 c0.9,0.6,1.6,1.3,2.1,2.2c0.6,1,0.9,2.2,0.9,3.6c0,0.9-0.1,1.8-0.4,2.6c-0.3,0.9-0.8,1.8-1.4,2.5c-0.7,0.7-1.5,1.3-2.4,1.7 c-0.3,0.1-0.6,0.2-0.9,0.3C73.6,52.7,72.5,53.5,71.3,53.5z"/><path fill="#454b54" d="M71.4,69.9c-16.5,0-30-13.5-30-30s13.5-30,30-30s30,13.5,30,30S88,69.9,71.4,69.9z M71.4,15.9 c-13.2,0-24,10.8-24,24s10.8,24,24,24s24-10.8,24-24S84.7,15.9,71.4,15.9z"/></svg>